<svg width="2046" height="2046" viewBox="0 0 2046 2046" fill="none" xmlns="http://www.w3.org/2000/svg">
<rect width="2046" height="2046" rx="150" fill="white"/>
<path d="M781.624 284C959.701 310.401 1082.66 476.214 1056.28 654.361L1036.39 788.629C1003.76 770.911 967.513 758.523 928.653 752.763L841.669 1340.09C827.297 1437.12 857.24 1530.49 916.258 1599.67L892.224 1762C714.144 1735.6 591.178 1569.79 617.564 1391.64L781.624 284ZM1036.39 788.629C1072.47 808.216 1104.11 834.333 1130.06 865.137L1065.77 1299.33C1051.51 1395.61 1080.89 1488.28 1139.01 1557.29L1116.33 1710.45C1035.24 1698.43 965.595 1657.5 916.258 1599.67L1036.39 788.629ZM1152.76 712.001C1330.84 738.397 1453.82 904.213 1427.44 1082.36L1340.43 1669.69C1258.6 1657.56 1188.42 1615.97 1139.01 1557.29L1203.33 1123.12C1217.59 1026.83 1188.19 934.154 1130.06 865.137L1152.76 712.001Z" fill="#111010"/>
</svg>
